<svg width="24" height="25" viewBox="0 0 24 25" fill="none" xmlns="http://www.w3.org/2000/svg">
<g id="Material icon / search">
<path id="Path" fill-rule="evenodd" clip-rule="evenodd" d="M14.71 14.3293H15.5L20.49 19.3293L19 20.8193L14 15.8293V15.0393L13.73 14.7593C12.59 15.7393 11.11 16.3293 9.5 16.3293C5.91 16.3293 3 13.4193 3 9.82935C3 6.23935 5.91 3.32935 9.5 3.32935C13.09 3.32935 16 6.23935 16 9.82935C16 11.4393 15.41 12.9193 14.43 14.0593L14.71 14.3293ZM5 9.82935C5 12.3193 7.01 14.3293 9.5 14.3293C11.99 14.3293 14 12.3193 14 9.82935C14 7.33935 11.99 5.32935 9.5 5.32935C7.01 5.32935 5 7.33935 5 9.82935Z" fill="#212121"/>
</g>
</svg>
