<svg width="116" height="116" viewBox="0 0 116 116" fill="none" xmlns="http://www.w3.org/2000/svg">
<g clip-path="url(#clip0_2958_15813)">
<path d="M115.991 0H73.856V14.3904H115.991V0Z" fill="#212121"/>
<path d="M115.991 0H101.725V42.5007H115.991V0Z" fill="#212121"/>
<path d="M101.725 42.5006H59.5894V56.891H101.725V42.5006Z" fill="#212121"/>
<path d="M73.8561 14.3904H59.5894V56.8911H73.8561V14.3904Z" fill="#212121"/>
<path d="M115.991 101.609H73.856V116H115.991V101.609Z" fill="#212121"/>
<path d="M115.991 73.4993H101.725V116H115.991V73.4993Z" fill="#212121"/>
<path d="M42.1353 101.61H0V116H42.1353V101.61Z" fill="#212121"/>
<path d="M14.2667 73.4994H0V116H14.2667V73.4994Z" fill="#212121"/>
<path d="M56.4019 59.1003H14.2666V73.4907H56.4019V59.1003Z" fill="#212121"/>
<path d="M56.402 59.1003H42.1353V101.601H56.402V59.1003Z" fill="#212121"/>
<path d="M42.1353 0H0V14.3904H42.1353V0Z" fill="#212121"/>
<path d="M14.2667 0H0V42.5007H14.2667V0Z" fill="#212121"/>
</g>
<defs>
<clipPath id="clip0_2958_15813">
<rect width="116" height="116" fill="white"/>
</clipPath>
</defs>
</svg>
